<svg width="101" height="16" viewBox="0 0 101 16" fill="none" xmlns="http://www.w3.org/2000/svg">
<path d="M16.539 6.097C16.5218 6.04429 16.4903 5.99743 16.4478 5.96173C16.4054 5.92603 16.3539 5.90292 16.299 5.895L10.939 5.116L8.542 0.26C8.51747 0.210701 8.47967 0.169223 8.43285 0.140229C8.38604 0.111235 8.33207 0.0958748 8.277 0.0958748C8.22193 0.0958748 8.16796 0.111235 8.12115 0.140229C8.07433 0.169223 8.03653 0.210701 8.012 0.26L5.613 5.117L0.253 5.896C0.198449 5.90413 0.147239 5.92729 0.105108 5.96288C0.0629761 5.99847 0.0315873 6.04509 0.0144582 6.09752C-0.00267103 6.14994 -0.00486393 6.2061 0.00812514 6.2597C0.0211142 6.3133 0.0487721 6.36223 0.0880001 6.401L3.968 10.181L3.051 15.521C3.042 15.5754 3.04832 15.6313 3.06927 15.6823C3.09022 15.7333 3.12496 15.7775 3.1696 15.8099C3.21424 15.8423 3.26701 15.8616 3.32201 15.8657C3.37701 15.8697 3.43206 15.8584 3.481 15.833L8.276 13.313L13.07 15.833C13.119 15.8589 13.1743 15.8706 13.2295 15.8667C13.2848 15.8627 13.3379 15.8433 13.3827 15.8107C13.4275 15.7781 13.4623 15.7336 13.483 15.6822C13.5037 15.6308 13.5096 15.5746 13.5 15.52L12.584 10.182L16.464 6.4C16.544 6.32 16.574 6.204 16.539 6.097Z" fill="#EF9546"/>
<path d="M58.5392 6.00113C58.5221 5.94841 58.4905 5.90155 58.4481 5.86585C58.4057 5.83016 58.3541 5.80704 58.2992 5.79913L52.9392 5.02013L50.5422 0.164125C50.5177 0.114826 50.4799 0.0733484 50.4331 0.0443544C50.3863 0.0153604 50.3323 0 50.2772 0C50.2222 0 50.1682 0.0153604 50.1214 0.0443544C50.0746 0.0733484 50.0368 0.114826 50.0122 0.164125L47.6132 5.02113L42.2532 5.80013C42.1987 5.80825 42.1475 5.83141 42.1053 5.867C42.0632 5.90259 42.0318 5.94922 42.0147 6.00164C41.9976 6.05407 41.9954 6.11023 42.0084 6.16383C42.0213 6.21743 42.049 6.26636 42.0882 6.30513L45.9682 10.0851L45.0512 15.4251C45.0422 15.4795 45.0486 15.5354 45.0695 15.5864C45.0904 15.6374 45.1252 15.6816 45.1698 15.714C45.2145 15.7464 45.2672 15.7657 45.3222 15.7698C45.3772 15.7739 45.4323 15.7626 45.4812 15.7371L50.2762 13.2171L55.0702 15.7371C55.1192 15.7631 55.1745 15.7747 55.2298 15.7708C55.2851 15.7668 55.3381 15.7475 55.3829 15.7148C55.4277 15.6822 55.4625 15.6377 55.4832 15.5863C55.504 15.5349 55.5099 15.4787 55.5002 15.4241L54.5842 10.0861L58.4642 6.30413C58.5442 6.22413 58.5742 6.10813 58.5392 6.00113Z" fill="#EF9546"/>
<path d="M37.5392 6.00113C37.5221 5.94841 37.4905 5.90155 37.4481 5.86585C37.4057 5.83016 37.3541 5.80704 37.2992 5.79913L31.9392 5.02013L29.5422 0.164125C29.5177 0.114826 29.4799 0.0733484 29.4331 0.0443544C29.3863 0.0153604 29.3323 0 29.2772 0C29.2222 0 29.1682 0.0153604 29.1214 0.0443544C29.0746 0.0733484 29.0368 0.114826 29.0122 0.164125L26.6132 5.02113L21.2532 5.80013C21.1987 5.80825 21.1475 5.83141 21.1053 5.867C21.0632 5.90259 21.0318 5.94922 21.0147 6.00164C20.9976 6.05407 20.9954 6.11023 21.0084 6.16383C21.0213 6.21743 21.049 6.26636 21.0882 6.30513L24.9682 10.0851L24.0512 15.4251C24.0422 15.4795 24.0486 15.5354 24.0695 15.5864C24.0904 15.6374 24.1252 15.6816 24.1698 15.714C24.2145 15.7464 24.2672 15.7657 24.3222 15.7698C24.3772 15.7739 24.4323 15.7626 24.4812 15.7371L29.2762 13.2171L34.0702 15.7371C34.1192 15.7631 34.1745 15.7747 34.2298 15.7708C34.2851 15.7668 34.3381 15.7475 34.3829 15.7148C34.4277 15.6822 34.4625 15.6377 34.4832 15.5863C34.504 15.5349 34.5099 15.4787 34.5002 15.4241L33.5842 10.0861L37.4642 6.30413C37.5442 6.22413 37.5742 6.10813 37.5392 6.00113Z" fill="#EF9546"/>
<path d="M100.539 6.00113C100.522 5.94841 100.49 5.90155 100.448 5.86585C100.406 5.83016 100.354 5.80704 100.299 5.79913L94.9392 5.02013L92.5422 0.164125C92.5177 0.114826 92.4799 0.0733484 92.4331 0.0443544C92.3863 0.0153604 92.3323 0 92.2772 0C92.2222 0 92.1682 0.0153604 92.1214 0.0443544C92.0746 0.0733484 92.0368 0.114826 92.0122 0.164125L89.6132 5.02113L84.2532 5.80013C84.1987 5.80825 84.1475 5.83141 84.1053 5.867C84.0632 5.90259 84.0318 5.94922 84.0147 6.00164C83.9976 6.05407 83.9954 6.11023 84.0084 6.16383C84.0213 6.21743 84.049 6.26636 84.0882 6.30513L87.9682 10.0851L87.0512 15.4251C87.0422 15.4795 87.0486 15.5354 87.0695 15.5864C87.0904 15.6374 87.1252 15.6816 87.1698 15.714C87.2145 15.7464 87.2672 15.7657 87.3222 15.7698C87.3772 15.7739 87.4323 15.7626 87.4812 15.7371L92.2762 13.2171L97.0702 15.7371C97.1192 15.7631 97.1745 15.7747 97.2298 15.7708C97.2851 15.7668 97.3381 15.7475 97.3829 15.7148C97.4277 15.6822 97.4625 15.6377 97.4832 15.5863C97.504 15.5349 97.5099 15.4787 97.5002 15.4241L96.5842 10.0861L100.464 6.30413C100.544 6.22413 100.574 6.10813 100.539 6.00113Z" fill="#EF9546"/>
<path d="M79.5392 6.00113C79.5221 5.94841 79.4905 5.90155 79.4481 5.86585C79.4057 5.83016 79.3541 5.80704 79.2992 5.79913L73.9392 5.02013L71.5422 0.164125C71.5177 0.114826 71.4799 0.0733484 71.4331 0.0443544C71.3863 0.0153604 71.3323 0 71.2772 0C71.2222 0 71.1682 0.0153604 71.1214 0.0443544C71.0746 0.0733484 71.0368 0.114826 71.0122 0.164125L68.6132 5.02113L63.2532 5.80013C63.1987 5.80825 63.1475 5.83141 63.1053 5.867C63.0632 5.90259 63.0318 5.94922 63.0147 6.00164C62.9976 6.05407 62.9954 6.11023 63.0084 6.16383C63.0213 6.21743 63.049 6.26636 63.0882 6.30513L66.9682 10.0851L66.0512 15.4251C66.0422 15.4795 66.0486 15.5354 66.0695 15.5864C66.0904 15.6374 66.1252 15.6816 66.1698 15.714C66.2145 15.7464 66.2672 15.7657 66.3222 15.7698C66.3772 15.7739 66.4323 15.7626 66.4812 15.7371L71.2762 13.2171L76.0702 15.7371C76.1192 15.7631 76.1745 15.7747 76.2298 15.7708C76.2851 15.7668 76.3381 15.7475 76.3829 15.7148C76.4277 15.6822 76.4625 15.6377 76.4832 15.5863C76.504 15.5349 76.5099 15.4787 76.5002 15.4241L75.5842 10.0861L79.4642 6.30413C79.5442 6.22413 79.5742 6.10813 79.5392 6.00113Z" fill="#EF9546"/>
</svg>
